<svg xmlns="http://www.w3.org/2000/svg" viewBox="0 0 1200 420" height="420" width="1200">
  <defs>
    <linearGradient y2="100%" x2="100%" y1="0%" x1="0%" id="bg">
      <stop stop-color="#0b0006" offset="0%"></stop>
      <stop stop-color="#0a0a0a" offset="55%"></stop>
      <stop stop-color="#0b0006" offset="100%"></stop>
    </linearGradient>
    <radialGradient r="60%" cy="20%" cx="15%" id="glow">
      <stop stop-opacity="0.16" stop-color="#ff1e3c" offset="0%"></stop>
      <stop stop-opacity="0" stop-color="#ff1e3c" offset="100%"></stop>
    </radialGradient>
    <radialGradient r="55%" cy="100%" cx="95%" id="glow2">
      <stop stop-opacity="0.12" stop-color="#ff1e3c" offset="0%"></stop>
      <stop stop-opacity="0" stop-color="#ff1e3c" offset="100%"></stop>
    </radialGradient>

    <!-- lightning bolt core gradient -->
    <linearGradient y2="1" y1="0" x2="0" x1="0" id="boltCore">
      <stop stop-opacity="0" stop-color="#fff9e6" offset="0%"></stop>
      <stop stop-opacity="1" stop-color="#fff9e6" offset="15%"></stop>
      <stop stop-opacity="1" stop-color="#ffd9e0" offset="80%"></stop>
      <stop stop-opacity="0" stop-color="#ff1e3c" offset="100%"></stop>
    </linearGradient>

    <filter y="-100%" x="-100%" height="300%" width="300%" id="glowBlur">
      <feGaussianBlur stdDeviation="5"></feGaussianBlur>
    </filter>

    <!-- typing clip rects: width animates 0 -> full, per line, on a 9s loop -->
    <clipPath id="clipLine1">
      <rect y="98" x="53" height="66" width="0">
        <animate attributeName="width" dur="9s" repeatCount="indefinite"
          keyTimes="0;0.0556;0.1444;0.8889;1"
          values="0;0;205;205;0"></animate>
      </rect>
    </clipPath>
    <clipPath id="clipLine2">
      <rect y="160" x="53" height="66" width="0">
        <animate attributeName="width" dur="9s" repeatCount="indefinite"
          keyTimes="0;0.1778;0.2667;0.8889;1"
          values="0;0;245;245;0"></animate>
      </rect>
    </clipPath>
    <clipPath id="clipLine3">
      <rect y="222" x="53" height="66" width="0">
        <animate attributeName="width" dur="9s" repeatCount="indefinite"
          keyTimes="0;0.3;0.3889;0.8889;1"
          values="0;0;235;235;0"></animate>
      </rect>
    </clipPath>
    <clipPath id="clipLine4">
      <rect y="284" x="53" height="66" width="0">
        <animate attributeName="width" dur="9s" repeatCount="indefinite"
          keyTimes="0;0.4222;0.5333;0.8889;1"
          values="0;0;285;285;0"></animate>
      </rect>
    </clipPath>

    <style>
      @keyframes pulseGlow {
        0%, 100% { opacity: 0.85; }
        50% { opacity: 1; }
      }

      @keyframes pulseLines {
        0%, 100% { opacity: 0.7; }
        50% { opacity: 1; }
      }

      @keyframes nodePulse {
        0%, 100% { opacity: 0.6; }
        50% { opacity: 1; }
      }

      .bg-glow {
        animation: pulseGlow 8s ease-in-out infinite;
      }

      .tech-lines {
        animation: pulseLines 6s ease-in-out infinite;
      }

      .node-group {
        animation: nodePulse 3s ease-in-out infinite;
      }

      .main-text {
        animation: pulseGlow 4s ease-in-out infinite;
      }

      .border {
        animation: pulseGlow 5s ease-in-out infinite;
      }
    </style>
  </defs>

  <rect fill="url(#bg)" height="420" width="1200"></rect>
  <rect class="bg-glow" fill="url(#glow)" height="420" width="1200"></rect>
  <rect class="bg-glow" fill="url(#glow2)" height="420" width="1200"></rect>

  <!-- LEFT SPIDER WEB : shines (staggered shimmer) and sways gently -->
  <g class="tech-lines">
    <animateTransform attributeName="transform" type="rotate" dur="12s" repeatCount="indefinite"
      values="0 -40 -60; 2.2 -40 -60; -2.2 -40 -60; 0 -40 -60"></animateTransform>

    <line opacity="0.14" stroke-width="1" stroke="#ff1e3c" y2="-60.0" x2="480.0" y1="-60.0" x1="-40.0"></line>
    <line opacity="0.16" stroke-width="1" stroke="#ff1e3c" y2="139.0" x2="440.4" y1="-60.0" x1="-40.0"></line>
    <line opacity="0.18" stroke-width="1" stroke="#ff1e3c" y2="307.7" x2="327.7" y1="-60.0" x1="-40.0"></line>
    <line opacity="0.14" stroke-width="1" stroke="#ff1e3c" y2="420.4" x2="159.0" y1="-60.0" x1="-40.0"></line>
    <line opacity="0.16" stroke-width="1" stroke="#ff1e3c" y2="460.0" x2="-40.0" y1="-60.0" x1="-40.0"></line>
    <line opacity="0.18" stroke-width="1" stroke="#ff1e3c" y2="420.4" x2="-239.0" y1="-60.0" x1="-40.0"></line>
    <line opacity="0.14" stroke-width="1" stroke="#ff1e3c" y2="307.7" x2="-407.7" y1="-60.0" x1="-40.0"></line>
    <line opacity="0.16" stroke-width="1" stroke="#ff1e3c" y2="139.0" x2="-520.4" y1="-60.0" x1="-40.0"></line>
    <line opacity="0.18" stroke-width="1" stroke="#ff1e3c" y2="-60.0" x2="-560.0" y1="-60.0" x1="-40.0"></line>
    <line opacity="0.14" stroke-width="1" stroke="#ff1e3c" y2="-259.0" x2="-520.4" y1="-60.0" x1="-40.0"></line>
    <line opacity="0.16" stroke-width="1" stroke="#ff1e3c" y2="-427.7" x2="-407.7" y1="-60.0" x1="-40.0"></line>
    <line opacity="0.18" stroke-width="1" stroke="#ff1e3c" y2="-540.4" x2="-239.0" y1="-60.0" x1="-40.0"></line>
    <line opacity="0.14" stroke-width="1" stroke="#ff1e3c" y2="-580.0" x2="-40.0" y1="-60.0" x1="-40.0"></line>
    <line opacity="0.16" stroke-width="1" stroke="#ff1e3c" y2="-540.4" x2="159.0" y1="-60.0" x1="-40.0"></line>
    <line opacity="0.18" stroke-width="1" stroke="#ff1e3c" y2="-427.7" x2="327.7" y1="-60.0" x1="-40.0"></line>
    <line opacity="0.14" stroke-width="1" stroke="#ff1e3c" y2="-259.0" x2="440.4" y1="-60.0" x1="-40.0"></line>

    <polygon opacity="0.17" stroke-width="1" stroke="#ff1e3c" fill="none" points="34.3,-60.0 28.6,-31.6 12.5,-7.5 -11.6,8.6 -40.0,14.3 -68.4,8.6 -92.5,-7.5 -108.6,-31.6 -114.3,-60.0 -108.6,-88.4 -92.5,-112.5 -68.4,-128.6 -40.0,-134.3 -11.6,-128.6 12.5,-112.5 28.6,-88.4">
      <animate attributeName="stroke-opacity" dur="3.2s" begin="0s" repeatCount="indefinite" values="0.3;1;0.3"></animate>
    </polygon>
    <polygon opacity="0.16" stroke-width="1" stroke="#ff1e3c" fill="none" points="108.6,-60.0 97.3,-3.1 65.1,45.1 16.9,77.3 -40.0,88.6 -96.9,77.3 -145.1,45.1 -177.3,-3.1 -188.6,-60.0 -177.3,-116.9 -145.1,-165.1 -96.9,-197.3 -40.0,-208.6 16.9,-197.3 65.1,-165.1 97.3,-116.9">
      <animate attributeName="stroke-opacity" dur="3.2s" begin="0.25s" repeatCount="indefinite" values="0.3;1;0.3"></animate>
    </polygon>
    <polygon opacity="0.15" stroke-width="1" stroke="#ff1e3c" fill="none" points="182.9,-60.0 165.9,25.3 117.6,97.6 45.3,145.9 -40.0,162.9 -125.3,145.9 -197.6,97.6 -245.9,25.3 -262.9,-60.0 -245.9,-145.3 -197.6,-217.6 -125.3,-265.9 -40.0,-282.9 45.3,-265.9 117.6,-217.6 165.9,-145.3">
      <animate attributeName="stroke-opacity" dur="3.2s" begin="0.5s" repeatCount="indefinite" values="0.3;1;0.3"></animate>
    </polygon>
    <polygon opacity="0.13" stroke-width="1" stroke="#ff1e3c" fill="none" points="257.1,-60.0 234.5,53.7 170.1,150.1 73.7,214.5 -40.0,237.1 -153.7,214.5 -250.1,150.1 -314.5,53.7 -337.1,-60.0 -314.5,-173.7 -250.1,-270.1 -153.7,-334.5 -40.0,-357.1 73.7,-334.5 170.1,-270.1 234.5,-173.7">
      <animate attributeName="stroke-opacity" dur="3.2s" begin="0.75s" repeatCount="indefinite" values="0.3;1;0.3"></animate>
    </polygon>
    <polygon opacity="0.12" stroke-width="1" stroke="#ff1e3c" fill="none" points="331.4,-60.0 303.2,82.1 222.6,202.6 102.1,283.2 -40.0,311.4 -182.1,283.2 -302.6,202.6 -383.2,82.1 -411.4,-60.0 -383.2,-202.1 -302.6,-322.6 -182.1,-403.2 -40.0,-431.4 102.1,-403.2 222.6,-322.6 303.2,-202.1">
      <animate attributeName="stroke-opacity" dur="3.2s" begin="1.0s" repeatCount="indefinite" values="0.3;1;0.3"></animate>
    </polygon>
    <polygon opacity="0.11" stroke-width="1" stroke="#ff1e3c" fill="none" points="405.7,-60.0 371.8,110.6 275.2,255.2 130.6,351.8 -40.0,385.7 -210.6,351.8 -355.2,255.2 -451.8,110.6 -485.7,-60.0 -451.8,-230.6 -355.2,-375.2 -210.6,-471.8 -40.0,-505.7 130.6,-471.8 275.2,-375.2 371.8,-230.6">
      <animate attributeName="stroke-opacity" dur="3.2s" begin="1.25s" repeatCount="indefinite" values="0.3;1;0.3"></animate>
    </polygon>
    <polygon opacity="0.10" stroke-width="1" stroke="#ff1e3c" fill="none" points="480.0,-60.0 440.4,139.0 327.7,307.7 159.0,420.4 -40.0,460.0 -239.0,420.4 -407.7,307.7 -520.4,139.0 -560.0,-60.0 -520.4,-259.0 -407.7,-427.7 -239.0,-540.4 -40.0,-580.0 159.0,-540.4 327.7,-427.7 440.4,-259.0">
      <animate attributeName="stroke-opacity" dur="3.2s" begin="1.5s" repeatCount="indefinite" values="0.3;1;0.3"></animate>
    </polygon>

    <circle opacity="0.55" fill="#ff1e3c" r="2.2" cy="-60.0" cx="405.7"><animate attributeName="opacity" dur="2s" begin="0.1s" repeatCount="indefinite" values="0.3;1;0.3"></animate></circle>
    <circle opacity="0.55" fill="#ff1e3c" r="2.2" cy="351.8" cx="130.6"><animate attributeName="opacity" dur="2s" begin="0.3s" repeatCount="indefinite" values="0.3;1;0.3"></animate></circle>
    <circle opacity="0.55" fill="#ff1e3c" r="2.2" cy="255.2" cx="-355.2"><animate attributeName="opacity" dur="2s" begin="0.5s" repeatCount="indefinite" values="0.3;1;0.3"></animate></circle>
    <circle opacity="0.55" fill="#ff1e3c" r="2.2" cy="-230.6" cx="-451.8"><animate attributeName="opacity" dur="2s" begin="0.7s" repeatCount="indefinite" values="0.3;1;0.3"></animate></circle>
    <circle opacity="0.55" fill="#ff1e3c" r="2.2" cy="-505.7" cx="-40.0"><animate attributeName="opacity" dur="2s" begin="0.9s" repeatCount="indefinite" values="0.3;1;0.3"></animate></circle>
    <circle opacity="0.55" fill="#ff1e3c" r="2.2" cy="-230.6" cx="371.8"><animate attributeName="opacity" dur="2s" begin="1.1s" repeatCount="indefinite" values="0.3;1;0.3"></animate></circle>
    <circle opacity="0.55" fill="#ff1e3c" r="2.2" cy="307.7" cx="327.7"><animate attributeName="opacity" dur="2s" begin="1.3s" repeatCount="indefinite" values="0.3;1;0.3"></animate></circle>
    <circle opacity="0.55" fill="#ff1e3c" r="2.2" cy="420.4" cx="-239.0"><animate attributeName="opacity" dur="2s" begin="1.5s" repeatCount="indefinite" values="0.3;1;0.3"></animate></circle>
    <circle opacity="0.55" fill="#ff1e3c" r="2.2" cy="-60.0" cx="-560.0"><animate attributeName="opacity" dur="2s" begin="1.7s" repeatCount="indefinite" values="0.3;1;0.3"></animate></circle>
    <circle opacity="0.55" fill="#ff1e3c" r="2.2" cy="-540.4" cx="-239.0"><animate attributeName="opacity" dur="2s" begin="1.9s" repeatCount="indefinite" values="0.3;1;0.3"></animate></circle>
    <circle opacity="0.55" fill="#ff1e3c" r="2.2" cy="-427.7" cx="327.7"><animate attributeName="opacity" dur="2s" begin="0.2s" repeatCount="indefinite" values="0.3;1;0.3"></animate></circle>
  </g>

  <!-- RIGHT SPIDER WEB : shines and sways -->
  <g class="tech-lines">
    <animateTransform attributeName="transform" type="rotate" dur="13s" repeatCount="indefinite"
      values="0 1240 470; -2.2 1240 470; 2.2 1240 470; 0 1240 470"></animateTransform>

    <line opacity="0.14" stroke-width="1" stroke="#ff1e3c" y2="470.0" x2="1720.0" y1="470.0" x1="1240.0"></line>
    <line opacity="0.16" stroke-width="1" stroke="#ff1e3c" y2="678.3" x2="1672.5" y1="470.0" x1="1240.0"></line>
    <line opacity="0.18" stroke-width="1" stroke="#ff1e3c" y2="845.3" x2="1539.3" y1="470.0" x1="1240.0"></line>
    <line opacity="0.14" stroke-width="1" stroke="#ff1e3c" y2="938.0" x2="1346.8" y1="470.0" x1="1240.0"></line>
    <line opacity="0.16" stroke-width="1" stroke="#ff1e3c" y2="938.0" x2="1133.2" y1="470.0" x1="1240.0"></line>
    <line opacity="0.18" stroke-width="1" stroke="#ff1e3c" y2="845.3" x2="940.7" y1="470.0" x1="1240.0"></line>
    <line opacity="0.14" stroke-width="1" stroke="#ff1e3c" y2="678.3" x2="807.5" y1="470.0" x1="1240.0"></line>
    <line opacity="0.16" stroke-width="1" stroke="#ff1e3c" y2="470.0" x2="760.0" y1="470.0" x1="1240.0"></line>
    <line opacity="0.18" stroke-width="1" stroke="#ff1e3c" y2="261.7" x2="807.5" y1="470.0" x1="1240.0"></line>
    <line opacity="0.14" stroke-width="1" stroke="#ff1e3c" y2="94.7" x2="940.7" y1="470.0" x1="1240.0"></line>
    <line opacity="0.16" stroke-width="1" stroke="#ff1e3c" y2="2.0" x2="1133.2" y1="470.0" x1="1240.0"></line>
    <line opacity="0.18" stroke-width="1" stroke="#ff1e3c" y2="2.0" x2="1346.8" y1="470.0" x1="1240.0"></line>
    <line opacity="0.14" stroke-width="1" stroke="#ff1e3c" y2="94.7" x2="1539.3" y1="470.0" x1="1240.0"></line>
    <line opacity="0.16" stroke-width="1" stroke="#ff1e3c" y2="261.7" x2="1672.5" y1="470.0" x1="1240.0"></line>

    <polygon opacity="0.17" stroke-width="1" stroke="#ff1e3c" fill="none" points="1320.0,470.0 1312.1,504.7 1289.9,532.5 1257.8,548.0 1222.2,548.0 1190.1,532.5 1167.9,504.7 1160.0,470.0 1167.9,435.3 1190.1,407.5 1222.2,392.0 1257.8,392.0 1289.9,407.5 1312.1,435.3">
      <animate attributeName="stroke-opacity" dur="3.2s" begin="0s" repeatCount="indefinite" values="0.3;1;0.3"></animate>
    </polygon>
    <polygon opacity="0.16" stroke-width="1" stroke="#ff1e3c" fill="none" points="1400.0,470.0 1384.2,539.4 1339.8,595.1 1275.6,626.0 1204.4,626.0 1140.2,595.1 1095.8,539.4 1080.0,470.0 1095.8,400.6 1140.2,344.9 1204.4,314.0 1275.6,314.0 1339.8,344.9 1384.2,400.6">
      <animate attributeName="stroke-opacity" dur="3.2s" begin="0.25s" repeatCount="indefinite" values="0.3;1;0.3"></animate>
    </polygon>
    <polygon opacity="0.15" stroke-width="1" stroke="#ff1e3c" fill="none" points="1480.0,470.0 1456.2,574.1 1389.6,657.6 1293.4,704.0 1186.6,704.0 1090.4,657.6 1023.8,574.1 1000.0,470.0 1023.8,365.9 1090.4,282.4 1186.6,236.0 1293.4,236.0 1389.6,282.4 1456.2,365.9">
      <animate attributeName="stroke-opacity" dur="3.2s" begin="0.5s" repeatCount="indefinite" values="0.3;1;0.3"></animate>
    </polygon>
    <polygon opacity="0.13" stroke-width="1" stroke="#ff1e3c" fill="none" points="1560.0,470.0 1528.3,608.8 1439.5,720.2 1311.2,782.0 1168.8,782.0 1040.5,720.2 951.7,608.8 920.0,470.0 951.7,331.2 1040.5,219.8 1168.8,158.0 1311.2,158.0 1439.5,219.8 1528.3,331.2">
      <animate attributeName="stroke-opacity" dur="3.2s" begin="0.75s" repeatCount="indefinite" values="0.3;1;0.3"></animate>
    </polygon>
    <polygon opacity="0.12" stroke-width="1" stroke="#ff1e3c" fill="none" points="1640.0,470.0 1600.4,643.6 1489.4,782.7 1329.0,860.0 1151.0,860.0 990.6,782.7 879.6,643.6 840.0,470.0 879.6,296.4 990.6,157.3 1151.0,80.0 1329.0,80.0 1489.4,157.3 1600.4,296.4">
      <animate attributeName="stroke-opacity" dur="3.2s" begin="1.0s" repeatCount="indefinite" values="0.3;1;0.3"></animate>
    </polygon>
    <polygon opacity="0.11" stroke-width="1" stroke="#ff1e3c" fill="none" points="1720.0,470.0 1672.5,678.3 1539.3,845.3 1346.8,938.0 1133.2,938.0 940.7,845.3 807.5,678.3 760.0,470.0 807.5,261.7 940.7,94.7 1133.2,2.0 1346.8,2.0 1539.3,94.7 1672.5,261.7">
      <animate attributeName="stroke-opacity" dur="3.2s" begin="1.25s" repeatCount="indefinite" values="0.3;1;0.3"></animate>
    </polygon>

    <circle opacity="0.55" fill="#ff1e3c" r="2.2" cy="643.6" cx="1600.4"><animate attributeName="opacity" dur="2s" begin="0.15s" repeatCount="indefinite" values="0.3;1;0.3"></animate></circle>
    <circle opacity="0.55" fill="#ff1e3c" r="2.2" cy="860.0" cx="1151.0"><animate attributeName="opacity" dur="2s" begin="0.35s" repeatCount="indefinite" values="0.3;1;0.3"></animate></circle>
    <circle opacity="0.55" fill="#ff1e3c" r="2.2" cy="470.0" cx="840.0"><animate attributeName="opacity" dur="2s" begin="0.55s" repeatCount="indefinite" values="0.3;1;0.3"></animate></circle>
    <circle opacity="0.55" fill="#ff1e3c" r="2.2" cy="80.0" cx="1151.0"><animate attributeName="opacity" dur="2s" begin="0.75s" repeatCount="indefinite" values="0.3;1;0.3"></animate></circle>
    <circle opacity="0.55" fill="#ff1e3c" r="2.2" cy="296.4" cx="1600.4"><animate attributeName="opacity" dur="2s" begin="0.95s" repeatCount="indefinite" values="0.3;1;0.3"></animate></circle>
    <circle opacity="0.55" fill="#ff1e3c" r="2.2" cy="470.0" cx="1720.0"><animate attributeName="opacity" dur="2s" begin="1.15s" repeatCount="indefinite" values="0.3;1;0.3"></animate></circle>
    <circle opacity="0.55" fill="#ff1e3c" r="2.2" cy="938.0" cx="1346.8"><animate attributeName="opacity" dur="2s" begin="1.35s" repeatCount="indefinite" values="0.3;1;0.3"></animate></circle>
    <circle opacity="0.55" fill="#ff1e3c" r="2.2" cy="678.3" cx="807.5"><animate attributeName="opacity" dur="2s" begin="1.55s" repeatCount="indefinite" values="0.3;1;0.3"></animate></circle>
    <circle opacity="0.55" fill="#ff1e3c" r="2.2" cy="94.7" cx="940.7"><animate attributeName="opacity" dur="2s" begin="1.75s" repeatCount="indefinite" values="0.3;1;0.3"></animate></circle>
    <circle opacity="0.55" fill="#ff1e3c" r="2.2" cy="94.7" cx="1539.3"><animate attributeName="opacity" dur="2s" begin="1.95s" repeatCount="indefinite" values="0.3;1;0.3"></animate></circle>
  </g>

  <!-- LIGHTNING SCAN LIGHTS (replaces the plain scan bar) -->
  <g id="lightning1">
    <animateTransform attributeName="transform" type="translate" dur="4.6s" repeatCount="indefinite"
      values="250,-170; 250,430"></animateTransform>
    <animate attributeName="opacity" dur="4.6s" repeatCount="indefinite"
      keyTimes="0;0.04;0.07;0.10;0.13;0.18;0.5;0.54;0.58;1"
      values="0;0;1;0.2;0.9;0;0;0.7;0;0"></animate>
    <path d="M20,0 L4,70 L18,68 L0,160 L38,78 L20,80 Z" fill="#ff1e3c" opacity="0.6" filter="url(#glowBlur)"></path>
    <path d="M20,0 L4,70 L18,68 L0,160 L38,78 L20,80 Z" fill="url(#boltCore)"></path>
  </g>
  <g id="lightning2">
    <animateTransform attributeName="transform" type="translate" dur="5.3s" begin="1.4s" repeatCount="indefinite"
      values="880,-170; 880,430"></animateTransform>
    <animate attributeName="opacity" dur="5.3s" begin="1.4s" repeatCount="indefinite"
      keyTimes="0;0.05;0.08;0.12;0.15;0.2;0.55;0.6;0.65;1"
      values="0;0;1;0.15;0.85;0;0;0.6;0;0"></animate>
    <path d="M18,0 L2,65 L16,63 L0,150 L34,72 L18,74 Z" fill="#ff1e3c" opacity="0.6" filter="url(#glowBlur)"></path>
    <path d="M18,0 L2,65 L16,63 L0,150 L34,72 L18,74 Z" fill="url(#boltCore)"></path>
  </g>

  <!-- BORDER -->
  <rect class="border" opacity="0.55" stroke-width="1.5" stroke="#ff1e3c" fill="none" height="418" width="1198" y="1" x="1"></rect>
  <rect class="border" opacity="0.22" stroke-width="1" stroke="#ff1e3c" fill="none" height="408" width="1188" y="6" x="6"></rect>

  <!-- HEADER -->
  <text font-weight="600" fill="#ff1e3c" font-size="22" font-family="Consolas, 'Courier New', monospace" y="70" x="60">&lt; NIKITA17-N /&gt;</text>

  <!-- TYPEWRITER LINES -->
  <g clip-path="url(#clipLine1)">
    <text letter-spacing="1" fill="#f2f2f2" font-weight="800" font-size="58" font-family="Arial, 'Helvetica Neue', sans-serif" y="150" x="58">CODE.</text>
  </g>
  <g clip-path="url(#clipLine2)">
    <text letter-spacing="1" fill="#f2f2f2" font-weight="800" font-size="58" font-family="Arial, 'Helvetica Neue', sans-serif" y="212" x="58">LEARN.</text>
  </g>
  <g clip-path="url(#clipLine3)">
    <text class="main-text" letter-spacing="1" fill="#ff1e3c" font-weight="800" font-size="58" font-family="Arial, 'Helvetica Neue', sans-serif" y="274" x="58">BUILD.</text>
  </g>
  <g clip-path="url(#clipLine4)">
    <text letter-spacing="1" fill="#f2f2f2" font-weight="800" font-size="58" font-family="Arial, 'Helvetica Neue', sans-serif" y="336" x="58">REPEAT.</text>
  </g>

  <!-- BLINKING CURSORS, one per line, lit up only while that line is "active" -->
  <g opacity="0">
    <animate attributeName="opacity" dur="9s" repeatCount="indefinite"
      keyTimes="0;0.0556;0.0557;0.1778;0.1779;1" values="0;0;1;1;0;0"></animate>
    <rect x="267" y="104" width="5" height="54" fill="#ff1e3c">
      <animate attributeName="opacity" dur="0.5s" repeatCount="indefinite" values="1;0;1"></animate>
    </rect>
  </g>
  <g opacity="0">
    <animate attributeName="opacity" dur="9s" repeatCount="indefinite"
      keyTimes="0;0.1778;0.1779;0.3;0.3001;1" values="0;0;1;1;0;0"></animate>
    <rect x="307" y="166" width="5" height="54" fill="#ff1e3c">
      <animate attributeName="opacity" dur="0.5s" repeatCount="indefinite" values="1;0;1"></animate>
    </rect>
  </g>
  <g opacity="0">
    <animate attributeName="opacity" dur="9s" repeatCount="indefinite"
      keyTimes="0;0.3;0.3001;0.4222;0.4223;1" values="0;0;1;1;0;0"></animate>
    <rect x="297" y="228" width="5" height="54" fill="#ff1e3c">
      <animate attributeName="opacity" dur="0.5s" repeatCount="indefinite" values="1;0;1"></animate>
    </rect>
  </g>
  <g opacity="0">
    <animate attributeName="opacity" dur="9s" repeatCount="indefinite"
      keyTimes="0;0.4222;0.4223;0.8889;0.889;1" values="0;0;1;1;0;0"></animate>
    <rect x="347" y="290" width="5" height="54" fill="#ff1e3c">
      <animate attributeName="opacity" dur="0.5s" repeatCount="indefinite" values="1;0;1"></animate>
    </rect>
  </g>

  <text fill="#c9c9c9" font-size="17" font-family="Consolas, 'Courier New', monospace" y="380" x="60">&lt; I don't just write code, I build the future. /&gt;</text>

  <!-- NODE NETWORK -->
  <g class="node-group" opacity="0.9" transform="translate(1000,60)">
    <circle fill="#ff1e3c" r="5" cy="30" cx="60"></circle>
    <circle opacity="0.8" fill="#ff1e3c" r="4" cy="80" cx="20"></circle>
    <circle opacity="0.8" fill="#ff1e3c" r="4" cy="70" cx="110"></circle>
    <circle fill="#ff1e3c" r="5" cy="140" cx="60"></circle>
    <circle opacity="0.7" fill="#ff1e3c" r="3.5" cy="130" cx="130"></circle>
    <line opacity="0.6" stroke-width="1.3" stroke="#ff1e3c" y2="80" x2="20" y1="30" x1="60"></line>
    <line opacity="0.6" stroke-width="1.3" stroke="#ff1e3c" y2="70" x2="110" y1="30" x1="60"></line>
    <line opacity="0.5" stroke-width="1.3" stroke="#ff1e3c" y2="140" x2="60" y1="80" x1="20"></line>
    <line opacity="0.5" stroke-width="1.3" stroke="#ff1e3c" y2="140" x2="60" y1="70" x1="110"></line>
    <line opacity="0.4" stroke-width="1.3" stroke="#ff1e3c" y2="130" x2="130" y1="70" x1="110"></line>
    <line opacity="0.4" stroke-width="1.3" stroke="#ff1e3c" y2="130" x2="130" y1="140" x1="60"></line>
  </g>

  <!-- WALKING STICK SPIDER : straight-line legs, walks diagonally on an 8s loop -->
  <g id="spiderOuter">
    <animateTransform attributeName="transform" type="translate" dur="8s" repeatCount="indefinite"
      calcMode="linear"
      keyTimes="0;0.5;1"
      values="80,70; 1120,360; 80,70"></animateTransform>

    <g id="spiderFlip">
      <animateTransform attributeName="transform" type="scale" dur="8s" repeatCount="indefinite"
        keyTimes="0;0.499;0.5;0.999;1"
        values="1,1; 1,1; -1,1; -1,1; 1,1"></animateTransform>

      <g id="spiderBody" filter="url(#glowBlur)">
        <!-- legs: right side (straight stick segments, hip at origin) -->
        <polyline points="0,0 14,-10 30,-14" fill="none" stroke="#ff1e3c" stroke-width="1.8" opacity="0.95">
          <animateTransform attributeName="transform" type="rotate" dur="0.4s" begin="0s" repeatCount="indefinite" values="-10 0 0; 10 0 0; -10 0 0"></animateTransform>
        </polyline>
        <polyline points="0,0 16,-2 34,-2" fill="none" stroke="#ff1e3c" stroke-width="1.8" opacity="0.95">
          <animateTransform attributeName="transform" type="rotate" dur="0.4s" begin="0.2s" repeatCount="indefinite" values="-10 0 0; 10 0 0; -10 0 0"></animateTransform>
        </polyline>
        <polyline points="0,0 16,6 32,14" fill="none" stroke="#ff1e3c" stroke-width="1.8" opacity="0.95">
          <animateTransform attributeName="transform" type="rotate" dur="0.4s" begin="0s" repeatCount="indefinite" values="-10 0 0; 10 0 0; -10 0 0"></animateTransform>
        </polyline>
        <polyline points="0,0 12,12 22,26" fill="none" stroke="#ff1e3c" stroke-width="1.8" opacity="0.95">
          <animateTransform attributeName="transform" type="rotate" dur="0.4s" begin="0.2s" repeatCount="indefinite" values="-10 0 0; 10 0 0; -10 0 0"></animateTransform>
        </polyline>

        <!-- legs: left side -->
        <polyline points="0,0 -14,-10 -30,-14" fill="none" stroke="#ff1e3c" stroke-width="1.8" opacity="0.95">
          <animateTransform attributeName="transform" type="rotate" dur="0.4s" begin="0.2s" repeatCount="indefinite" values="10 0 0; -10 0 0; 10 0 0"></animateTransform>
        </polyline>
        <polyline points="0,0 -16,-2 -34,-2" fill="none" stroke="#ff1e3c" stroke-width="1.8" opacity="0.95">
          <animateTransform attributeName="transform" type="rotate" dur="0.4s" begin="0s" repeatCount="indefinite" values="10 0 0; -10 0 0; 10 0 0"></animateTransform>
        </polyline>
        <polyline points="0,0 -16,6 -32,14" fill="none" stroke="#ff1e3c" stroke-width="1.8" opacity="0.95">
          <animateTransform attributeName="transform" type="rotate" dur="0.4s" begin="0.2s" repeatCount="indefinite" values="10 0 0; -10 0 0; 10 0 0"></animateTransform>
        </polyline>
        <polyline points="0,0 -12,12 -22,26" fill="none" stroke="#ff1e3c" stroke-width="1.8" opacity="0.95">
          <animateTransform attributeName="transform" type="rotate" dur="0.4s" begin="0s" repeatCount="indefinite" values="10 0 0; -10 0 0; 10 0 0"></animateTransform>
        </polyline>

        <!-- stick body: neck line + two dot joints for head/abdomen -->
        <line x1="0" y1="0" x2="0" y2="-9" stroke="#ff1e3c" stroke-width="1.8"></line>
        <circle cx="0" cy="0" r="4" fill="#ff1e3c"></circle>
        <circle cx="0" cy="-9" r="3" fill="#ff1e3c"></circle>
        <circle cx="-1.2" cy="-10" r="0.8" fill="#0a0a0a"></circle>
        <circle cx="1.2" cy="-10" r="0.8" fill="#0a0a0a"></circle>

        <animateTransform attributeName="transform" type="translate" dur="0.25s" repeatCount="indefinite"
          values="0,0; 0,-1.4; 0,0"></animateTransform>
      </g>
    </g>
  </g>
</svg>
