<svg width="1100" height="190" viewBox="0 0 1100 190" xmlns="http://www.w3.org/2000/svg">
<rect width="1100" height="190" fill="none"/>
<line x1="124.0" y1="70" x2="240.0" y2="70" stroke="#ff1e3c" stroke-width="1.5" stroke-dasharray="4,4" opacity="0.6"/><polygon points="178.0,66 187.0,70 178.0,74" fill="#ff1e3c" opacity="0.7"/><line x1="308.0" y1="70" x2="424.0" y2="70" stroke="#ff1e3c" stroke-width="1.5" stroke-dasharray="4,4" opacity="0.6"/><polygon points="362.0,66 371.0,70 362.0,74" fill="#ff1e3c" opacity="0.7"/><line x1="492.0" y1="70" x2="608.0" y2="70" stroke="#ff1e3c" stroke-width="1.5" stroke-dasharray="4,4" opacity="0.6"/><polygon points="546.0,66 555.0,70 546.0,74" fill="#ff1e3c" opacity="0.7"/><line x1="676.0" y1="70" x2="792.0" y2="70" stroke="#ff1e3c" stroke-width="1.5" stroke-dasharray="4,4" opacity="0.6"/><polygon points="730.0,66 739.0,70 730.0,74" fill="#ff1e3c" opacity="0.7"/><line x1="860.0" y1="70" x2="976.0" y2="70" stroke="#ff1e3c" stroke-width="1.5" stroke-dasharray="4,4" opacity="0.6"/><polygon points="914.0,66 923.0,70 914.0,74" fill="#ff1e3c" opacity="0.7"/>
<g transform="translate(90.0,70)"><circle cx="0" cy="-6" r="14" fill="none" stroke="#ff1e3c" stroke-width="2.2"/><line x1="-5" y1="10" x2="5" y2="10" stroke="#ff1e3c" stroke-width="2.2"/><line x1="-4" y1="15" x2="4" y2="15" stroke="#ff1e3c" stroke-width="2.2"/><line x1="0" y1="-20" x2="0" y2="-26" stroke="#ff1e3c" stroke-width="2"/><line x1="-16" y1="-6" x2="-22" y2="-6" stroke="#ff1e3c" stroke-width="2"/><line x1="16" y1="-6" x2="22" y2="-6" stroke="#ff1e3c" stroke-width="2"/></g><circle cx="90.0" cy="70" r="32" fill="none" stroke="#ff1e3c" stroke-width="1.4" opacity="0.55"/><g transform="translate(274.0,70)"><circle cx="-3" cy="-3" r="13" fill="none" stroke="#ff1e3c" stroke-width="2.2"/><line x1="7" y1="7" x2="18" y2="18" stroke="#ff1e3c" stroke-width="2.5" stroke-linecap="round"/></g><circle cx="274.0" cy="70" r="32" fill="none" stroke="#ff1e3c" stroke-width="1.4" opacity="0.55"/><g transform="translate(458.0,70)"><text x="0" y="6" font-family="Consolas, monospace" font-size="24" fill="#ff1e3c" text-anchor="middle" font-weight="700">&lt;/&gt;</text></g><circle cx="458.0" cy="70" r="32" fill="none" stroke="#ff1e3c" stroke-width="1.4" opacity="0.55"/><g transform="translate(642.0,70)"><circle cx="0" cy="0" r="15" fill="none" stroke="#ff1e3c" stroke-width="2.2"/><path d="M -7 -4 Q 0 -12 7 -4 Q 12 0 7 4 Q 0 12 -7 4 Q -12 0 -7 -4 Z" fill="none" stroke="#ff1e3c" stroke-width="1.6"/></g><circle cx="642.0" cy="70" r="32" fill="none" stroke="#ff1e3c" stroke-width="1.4" opacity="0.55"/><g transform="translate(826.0,70)"><circle cx="0" cy="0" r="9" fill="none" stroke="#ff1e3c" stroke-width="2.2"/><circle cx="0" cy="0" r="3" fill="#ff1e3c"/><line x1="9.0" y1="0.0" x2="15.0" y2="0.0" stroke="#ff1e3c" stroke-width="2.2"/><line x1="6.4" y1="6.4" x2="10.6" y2="10.6" stroke="#ff1e3c" stroke-width="2.2"/><line x1="0.0" y1="9.0" x2="0.0" y2="15.0" stroke="#ff1e3c" stroke-width="2.2"/><line x1="-6.4" y1="6.4" x2="-10.6" y2="10.6" stroke="#ff1e3c" stroke-width="2.2"/><line x1="-9.0" y1="0.0" x2="-15.0" y2="0.0" stroke="#ff1e3c" stroke-width="2.2"/><line x1="-6.4" y1="-6.4" x2="-10.6" y2="-10.6" stroke="#ff1e3c" stroke-width="2.2"/><line x1="-0.0" y1="-9.0" x2="-0.0" y2="-15.0" stroke="#ff1e3c" stroke-width="2.2"/><line x1="6.4" y1="-6.4" x2="10.6" y2="-10.6" stroke="#ff1e3c" stroke-width="2.2"/></g><circle cx="826.0" cy="70" r="32" fill="none" stroke="#ff1e3c" stroke-width="1.4" opacity="0.55"/><g transform="translate(1010.0,70)"><path d="M 0 -18 L 8 4 L 0 -2 L -8 4 Z" fill="#ff1e3c"/><line x1="0" y1="4" x2="0" y2="16" stroke="#ff1e3c" stroke-width="2"/></g><circle cx="1010.0" cy="70" r="32" fill="none" stroke="#ff1e3c" stroke-width="1.4" opacity="0.55"/>
<text x="90.0" y="128" font-family="Consolas, monospace" font-size="15" fill="#e6e6e6" text-anchor="middle" letter-spacing="1">IDEA</text><text x="274.0" y="128" font-family="Consolas, monospace" font-size="15" fill="#e6e6e6" text-anchor="middle" letter-spacing="1">RESEARCH</text><text x="458.0" y="128" font-family="Consolas, monospace" font-size="15" fill="#e6e6e6" text-anchor="middle" letter-spacing="1">CODE</text><text x="642.0" y="128" font-family="Consolas, monospace" font-size="15" fill="#e6e6e6" text-anchor="middle" letter-spacing="1">TRAIN</text><text x="826.0" y="128" font-family="Consolas, monospace" font-size="15" fill="#e6e6e6" text-anchor="middle" letter-spacing="1">OPTIMIZE</text><text x="1010.0" y="128" font-family="Consolas, monospace" font-size="15" fill="#e6e6e6" text-anchor="middle" letter-spacing="1">DEPLOY</text>
</svg>